<svg xmlns="http://www.w3.org/2000/svg" version="1.1" xml:space="preserve" width="3711.25" height="811.25" viewBox="0 0 3711.25 811.25"><defs><clipPath clipPathUnits="userSpaceOnUse" id="a"><path d="M2319.04 420.282c-31.243-31.245-31.252-81.894-.01-113.142 31.243-31.242 81.897-31.242 113.144.005l345.77 345.765c31.244 31.245 31.254 81.893.01 113.142-31.242 31.242-81.896 31.242-113.142-.005l-345.77-345.765z" clip-rule="evenodd"/></clipPath><clipPath clipPathUnits="userSpaceOnUse" id="b"><path d="M0 0h3467v1075H0V0z"/></clipPath><clipPath clipPathUnits="userSpaceOnUse" id="c"><path d="M2433.18 761.047c-31.246 31.245-81.895 31.254-113.144.005-31.242-31.242-31.24-81.895.01-113.142l345.766-345.765c31.244-31.245 81.893-31.254 113.142-.005 31.242 31.242 31.24 81.895-.01 113.142L2433.18 761.047z" clip-rule="evenodd"/></clipPath><clipPath clipPathUnits="userSpaceOnUse" id="d"><path d="M0 0h3467v1075H0V0z"/></clipPath><clipPath clipPathUnits="userSpaceOnUse" id="e"><path d="M2775 186v-7h443v716h-626V712h183V333h-140V186h140z" clip-rule="evenodd"/></clipPath><clipPath clipPathUnits="userSpaceOnUse" id="f"><path d="M0 0h3467v1075H0V0z"/></clipPath><clipPath clipPathUnits="userSpaceOnUse" id="g"><path d="M2592 179h626v716h-626V179z"/></clipPath><clipPath clipPathUnits="userSpaceOnUse" id="h"><path d="M2592 179h626v716h-626V179z"/></clipPath><clipPath clipPathUnits="userSpaceOnUse" id="i"><path d="M2432.697 534.75l354.053 354.053 353.553-353.553-354.053-354.053-353.553 353.553z" clip-rule="evenodd"/></clipPath><clipPath clipPathUnits="userSpaceOnUse" id="j"><path d="M0 0h3467v1075H0V0z"/></clipPath><clipPath clipPathUnits="userSpaceOnUse" id="k"><path d="M2432 274h375v521h-375V274z"/></clipPath><clipPath clipPathUnits="userSpaceOnUse" id="l"><path d="M2546.543 421.46L2432.23 307.144c-31.248-31.247-81.9-31.247-113.143-.005-31.25 31.25-31.24 81.895.01 113.14l114.31 114.315-114.314 114.313c-31.247 31.246-31.247 81.9 0 113.14 31.25 31.25 81.897 31.24 113.142-.004l114.313-114.313 118.314 118.314c31.247 31.247 81.9 31.247 113.142.005 31.25-31.25 31.24-81.897 0-113.14L2659.68 534.595l118.315-118.315c31.247-31.246 31.247-81.9.01-113.14-31.25-31.25-81.897-31.24-113.142.004L2546.548 421.46z" clip-rule="evenodd"/></clipPath><clipPath clipPathUnits="userSpaceOnUse" id="m"><path d="M2432 181h709v708h-709V181z"/></clipPath><clipPath clipPathUnits="userSpaceOnUse" id="n"><path d="M1536.684 686.858c-13.41 36.844 5.583 77.582 42.44 90.996l.935.34c36.845 13.412 77.59-5.58 91-42.427l129.63-356.156c13.41-36.84-5.584-77.58-42.44-90.993l-.936-.34c-36.848-13.412-77.59 5.58-91 42.427l-129.63 356.156z" clip-rule="evenodd"/></clipPath><clipPath clipPathUnits="userSpaceOnUse" id="o"><path d="M0 0h3467v1075H0V0z"/></clipPath><clipPath clipPathUnits="userSpaceOnUse" id="p"><path d="M1931.69 686.858c13.41 36.844-5.582 77.582-42.44 90.996l-.934.34c-36.848 13.412-77.59-5.58-91-42.427L1667.683 379.61c-13.41-36.843 5.583-77.58 42.44-90.995l.935-.34c36.847-13.412 77.59 5.58 91 42.427l129.63 356.156z" clip-rule="evenodd"/></clipPath><clipPath clipPathUnits="userSpaceOnUse" id="q"><path d="M0 0h3467v1075H0V0z"/></clipPath><clipPath clipPathUnits="userSpaceOnUse" id="r"><path d="M2191.69 686.858c13.41 36.844-5.582 77.582-42.44 90.996l-.934.34c-36.848 13.412-77.59-5.58-91-42.427L1927.683 379.61c-13.41-36.843 5.583-77.58 42.44-90.995l.935-.34c36.847-13.412 77.59 5.58 91 42.427l129.63 356.156z" clip-rule="evenodd"/></clipPath><clipPath clipPathUnits="userSpaceOnUse" id="s"><path d="M0 0h3467v1075H0V0z"/></clipPath><clipPath clipPathUnits="userSpaceOnUse" id="t"><path d="M1797.684 686.858c-13.41 36.844 5.583 77.582 42.44 90.996l.935.34c36.845 13.412 77.59-5.58 91-42.427l129.63-356.156c13.41-36.84-5.584-77.58-42.44-90.993l-.936-.34c-36.848-13.412-77.59 5.58-91 42.427l-129.63 356.156z" clip-rule="evenodd"/></clipPath><clipPath clipPathUnits="userSpaceOnUse" id="u"><path d="M0 0h3467v1075H0V0z"/></clipPath><clipPath clipPathUnits="userSpaceOnUse" id="v"><path d="M0 0h3467v1075H0V0z"/></clipPath><clipPath clipPathUnits="userSpaceOnUse" id="w"><path d="M660 353.998C660 393.21 691.786 425 730.998 425h228.004c39.21 0 70.998-31.78 70.998-71.002v-.995C1030 313.79 998.214 282 959.002 282H730.998C691.788 282 660 313.78 660 353.002v.995z" clip-rule="evenodd"/></clipPath><clipPath clipPathUnits="userSpaceOnUse" id="x"><path d="M0 0h3467v1075H0V0z"/></clipPath><clipPath clipPathUnits="userSpaceOnUse" id="y"><path d="M660 713.008C660 752.216 691.78 784 731.003 784h.995C771.21 784 803 752.217 803 713.008V352.992C803 313.784 771.22 282 731.997 282h-.995C691.79 282 660 313.783 660 352.992v360.016z" clip-rule="evenodd"/></clipPath><clipPath clipPathUnits="userSpaceOnUse" id="z"><path d="M0 0h3467v1075H0V0z"/></clipPath><clipPath clipPathUnits="userSpaceOnUse" id="A"><path d="M249 712.008C249 751.216 280.78 783 320.002 783h.995C360.212 783 392 751.217 392 712.008V351.992C392 312.784 360.22 281 320.998 281h-.995C280.788 281 249 312.783 249 351.992v360.016z" clip-rule="evenodd"/></clipPath><clipPath clipPathUnits="userSpaceOnUse" id="B"><path d="M0 0h3467v1075H0V0z"/></clipPath><clipPath clipPathUnits="userSpaceOnUse" id="C"><path d="M250 711.997C250 751.21 281.783 783 321.01 783h236.98c39.218 0 71.01-31.78 71.01-71.003v-.995C629 671.79 597.217 640 557.99 640H321.01c-39.22 0-71.01 31.78-71.01 71.003v.995z" clip-rule="evenodd"/></clipPath><clipPath clipPathUnits="userSpaceOnUse" id="D"><path d="M0 0h3467v1075H0V0z"/></clipPath><clipPath clipPathUnits="userSpaceOnUse" id="E"><path d="M260 535.997C260 575.21 291.784 607 331 607h140c39.212 0 71-31.78 71-71.003v-.995C542 495.79 510.216 464 471 464H331c-39.212 0-71 31.78-71 71.003v.995z" clip-rule="evenodd"/></clipPath><clipPath clipPathUnits="userSpaceOnUse" id="F"><path d="M0 0h3467v1075H0V0z"/></clipPath></defs><g><g><g><g clip-path="url(#a)" transform="matrix(1.25 0 0 -1.25 -311.25 1073.75)"><g clip-path="url(#b)"><path d="M2255.397 363.708L2375.605 243.5l465.983 465.984L2721.38 829.69l-465.983-465.984z" fill="#00b2cc" fill-opacity="1" fill-rule="nonzero"/></g></g></g><g><g clip-path="url(#c)" transform="matrix(1.25 0 0 -1.25 -311.25 1073.75)"><g clip-path="url(#d)"><path d="M2376.605 824.692l-120.208-120.208L2722.38 238.5l120.208 120.208-465.983 465.984z" fill="#00b2cc" fill-opacity="1" fill-rule="nonzero"/></g></g></g><g><g clip-path="url(#e)" transform="matrix(1.25 0 0 -1.25 -311.25 1073.75)"><g clip-path="url(#f)"><g><g clip-path="url(#g)"><g><g clip-path="url(#h)"><g><path d="M2893 290c135.31 0 245 109.466 245 244.5S3028.31 779 2893 779s-245-109.466-245-244.5S2757.69 290 2893 290z" stroke-miterlimit="10" fill="none" stroke="#67c18e" stroke-width="160" stroke-linecap="butt" stroke-linejoin="miter" stroke-dasharray="none" stroke-opacity="1"/></g></g></g></g></g></g></g></g><g clip-path="url(#i)" transform="matrix(1.25 0 0 -1.25 -311.25 1073.75)"><g clip-path="url(#j)"><g><g clip-path="url(#k)"><g><g clip-path="url(#l)"><g clip-path="url(#m)"><path d="M2290.654 794.483h515.777V274.707h-515.774v519.776z" fill="#2a3646" fill-opacity="1" fill-rule="nonzero"/></g></g></g></g></g></g></g></g><g><g><g clip-path="url(#n)" transform="matrix(1.25 0 0 -1.25 -311.25 1073.75)"><g clip-path="url(#o)"><path d="M1505.995 756.558l143.773 52.33L1831.38 309.91l-143.773-52.33-181.612 498.978z" fill="#2a3646" fill-opacity="1" fill-rule="nonzero"/></g></g></g><g><g clip-path="url(#p)" transform="matrix(1.25 0 0 -1.25 -311.25 1073.75)"><g clip-path="url(#q)"><path d="M1962.38 756.558l-143.773 52.33-181.612-498.977 143.773-52.33 181.612 498.98z" fill="#2a3646" fill-opacity="1" fill-rule="nonzero"/></g></g></g><g><g clip-path="url(#r)" transform="matrix(1.25 0 0 -1.25 -311.25 1073.75)"><g clip-path="url(#s)"><path d="M2222.38 756.558l-143.773 52.33-181.612-498.977 143.773-52.33 181.612 498.98z" fill="#2a3646" fill-opacity="1" fill-rule="nonzero"/></g></g></g><g><g clip-path="url(#t)" transform="matrix(1.25 0 0 -1.25 -311.25 1073.75)"><g clip-path="url(#u)"><path d="M1766.995 756.558l143.773 52.33L2092.38 309.91l-143.773-52.33-181.612 498.978z" fill="#2a3646" fill-opacity="1" fill-rule="nonzero"/></g></g></g></g><g><g clip-path="url(#v)" transform="matrix(1.25 0 0 -1.25 -311.25 1073.75)"><g><path d="M1273 353c100.516 0 182 80.59 182 180s-81.484 180-182 180-182-80.59-182-180 81.484-180 182-180z" stroke-miterlimit="10" fill="none" stroke="#2a3646" stroke-width="143" stroke-linecap="butt" stroke-linejoin="miter" stroke-dasharray="none" stroke-opacity="1"/></g></g></g><g><g><g clip-path="url(#w)" transform="matrix(1.25 0 0 -1.25 -311.25 1073.75)"><g clip-path="url(#x)"><path d="M655 430h380V277H655v153z" fill="#2a3646" fill-opacity="1" fill-rule="nonzero"/></g></g></g><g><g clip-path="url(#y)" transform="matrix(1.25 0 0 -1.25 -311.25 1073.75)"><g clip-path="url(#z)"><path d="M655 789h153V277H655v512z" fill="#2a3646" fill-opacity="1" fill-rule="nonzero"/></g></g></g></g><g><g><g clip-path="url(#A)" transform="matrix(1.25 0 0 -1.25 -311.25 1073.75)"><g clip-path="url(#B)"><path d="M244 788h153V276H244v512z" fill="#2a3646" fill-opacity="1" fill-rule="nonzero"/></g></g></g><g><g clip-path="url(#C)" transform="matrix(1.25 0 0 -1.25 -311.25 1073.75)"><g clip-path="url(#D)"><path d="M245 788h389V635H245v153z" fill="#2a3646" fill-opacity="1" fill-rule="nonzero"/></g></g></g><g><g clip-path="url(#E)" transform="matrix(1.25 0 0 -1.25 -311.25 1073.75)"><g clip-path="url(#F)"><path d="M255 612h292V459H255v153z" fill="#2a3646" fill-opacity="1" fill-rule="nonzero"/></g></g></g></g></g></svg>